# xmcd
#
# Track frame offsets:
#	183
#	17883
#	31608
#
# Disc length: 613 seconds
#
# Revision: 0
# Processed by: cddbd v1.4b42PL1 Copyright (c) Steve Scherf et al.
# Submitted via: audiograbber 1.80
#
DISCID=16026303
DTITLE=Truck Stop - Wenn es Nacht wird in Old Tucson (Maxi-CD)
DYEAR=1900
DGENRE=
TTITLE0=Wenn es Nacht wird in Old Tucson
TTITLE1=Mitten aus dem Leben
TTITLE2=Mein Stiefel kommt in'n Himmel
EXTD=
EXTT0=
EXTT1=
EXTT2=
PLAYORDER=
